<?xml version="1.0" encoding="UTF-8"?>
<svg id="Layer_2" data-name="Layer 2" xmlns="http://www.w3.org/2000/svg" viewBox="0 0 652.04 122.16">
  <defs>
    <style>
      .cls-1 {
        fill: #fff;
      }
    </style>
  </defs>
  <polygon class="cls-1" points="0 1.18 0 121.08 60.73 121.08 60.73 95.43 26.18 95.43 26.18 1.18 0 1.18"/>
  <path class="cls-1" d="M126.94,120.91h25.05L122.3,1.02h-28.28l-29.69,119.89h25.05l3.2-11.18h31.17l3.2,11.18ZM99.57,85.25l8.59-41.68,8.59,41.68h-17.18Z"/>
  <path class="cls-1" d="M206.02,51.03c3.68-5.16,5.84-11.46,5.84-18.28,0-17.44-14.14-31.57-31.57-31.57h-25.45v119.89h25.46c21.95,0,39.74-17.8,39.74-39.75,0-12.14-5.44-23.01-14.02-30.29ZM189.13,32.74c0,4.88-3.95,8.83-8.83,8.84h0v-17.68c4.88,0,8.84,3.96,8.84,8.84ZM180.29,97.46v-32.27c8.91,0,16.14,7.22,16.14,16.14s-7.23,16.13-16.14,16.13Z"/>
  <path class="cls-1" d="M487.86,68.07c6.64-7.1,10.71-16.64,10.71-27.14,0-18.5-12.63-34.04-29.73-38.48-3.2-.83-6.56-1.27-10.02-1.27h-26.78v42.3C424.47,18.38,401.18.09,373.61.09c-22.19,0-41.62,11.85-52.3,29.56l7.03-28.39-25.05-.17-14.93,64.09-11.33-40.47h-17.78l-11.33,40.47L232.99,1.1l-25.05.17,29.7,119.89h23.72l6.78-28.76,6.78,28.76h23.72l14.03-56.63c1.76,32.12,28.37,57.64,60.94,57.64,27.57,0,50.86-18.29,58.43-43.39v42.3h26.78v-40.4c1.6,0,3.18-.09,4.73-.28l11.79,40.68h27.88l-15.36-53ZM373.61,96.61c-19.6,0-35.49-15.88-35.49-35.48s15.89-35.49,35.49-35.49,35.49,15.88,35.49,35.49-15.89,35.48-35.49,35.48ZM458.82,57.31V24.54c9.06,0,16.39,7.33,16.39,16.39s-7.33,16.38-16.39,16.38Z"/>
  <path class="cls-1" d="M631.25,50.26c-.49-.31-1-.61-1.51-.9,0,0,0,0,0,0-.14-.08-.33-.19-.56-.3-2.32-1.27-4.78-2.32-7.36-3.11-2.51-.92-5.58-1.95-9.22-3-7.43-2.14-10.65-7.87-10.98-8.5-.03-.04-.04-.07-.04-.07-1.19-1.8-1.75-4.05-1.42-6.42.59-4.22,4.13-7.63,8.48-8.11,4.75-.52,9.18,2.15,10.6,6.24l15.96-13.06c-5.68-8.4-15.64-13.81-26.86-13.29-15.34.71-28.85,12.18-29.79,27.11-.56,8.94,3.23,18.09,9.19,23.84.84.81,1.74,1.56,2.7,2.26,4.17,3.29,12.56,9.01,23.81,12.34,11.07,3.27,12.76,11.8,12.67,17.03.01.1.01.19.01.29,0,1.2-.13,2.37-.38,3.49-.02.07-.03.13-.04.19-.02.09-.04.18-.06.25,0,.03-.01.06-.02.09-1.84,7.28-8.58,12.66-16.61,12.66-4.81,0-9.15-1.93-12.25-5.03l-17.39,13.82c7.25,7.98,17.84,13.01,29.63,13.01,21.82,0,39.52-17.23,39.52-38.48,0-13.55-7.21-25.47-18.09-32.34Z"/>
  <g>
    <path class="cls-1" d="M356.61,71.25c-5.24,0-8.61-4.09-8.61-9.15s3.37-9.11,8.61-9.11c2.48,0,4.81.94,6.39,2.39l-1.42,1.47c-1.4-1.24-3.08-1.93-4.97-1.93-4,0-6.47,3.36-6.47,7.15s2.47,7.24,6.47,7.24c3.4,0,6.19-2.78,6.51-6.14l-6.8.02v-1.96h8.98v.9c0,5.01-3.84,9.11-8.69,9.11Z"/>
    <path class="cls-1" d="M371.51,66.11v5.15h-2.12v-18.26h3.96c5.3,0,7.75,2.25,7.75,6.54,0,4.96-3.82,6.55-7.89,6.57h-1.7ZM371.51,54.93v9.23h1.7c3.63,0,5.98-1.36,5.98-4.61,0-2.78-1.51-4.61-5.73-4.61h-1.95Z"/>
    <path class="cls-1" d="M398.24,56.19c-1.24-.78-2.69-1.26-4.28-1.26-4.28,0-7.24,3.38-7.24,7.15s2.97,7.24,7.24,7.24c1.45,0,2.83-.41,4.28-1.26l.97,1.66c-1.79,1.1-3.4,1.54-5.29,1.54-5.52,0-9.34-4.09-9.34-9.15s3.84-9.11,9.34-9.11c1.89,0,3.43.41,5.29,1.54l-.97,1.66Z"/>
  </g>
  <polygon class="cls-1" points="550.45 41.51 583.9 1.18 551 1.18 539.34 14.9 532.37 23.1 532.37 3.69 532.37 1.18 505.59 1.18 505.59 54.6 505.59 95.61 505.59 121.07 532.37 121.07 532.37 67.71 538.34 81.99 554.66 121.07 583.67 121.07 561.1 67 550.45 41.51"/>
</svg>