<?xml version="1.0" encoding="UTF-8"?>
<svg id="Layer_2" xmlns="http://www.w3.org/2000/svg" viewBox="0 0 790.5 122.47">
  <defs>
    <style>
      .cls-1 {
        fill: none;
      }
    </style>
  </defs>
  <polygon points="0 1.49 0 121.38 60.73 121.38 60.73 95.73 26.18 95.73 26.18 1.49 0 1.49"/>
  <path d="M126.94,121.21h25.05L122.3,1.32h-28.28l-29.69,119.89h25.05l3.2-11.18h31.17l3.2,11.18ZM99.57,85.55l8.59-41.68,8.59,41.68h-17.18Z"/>
  <path d="M207.02,51.34c3.68-5.16,5.84-11.46,5.84-18.28,0-17.44-14.14-31.57-31.57-31.57h-25.45v119.89h25.46c21.95,0,39.74-17.8,39.74-39.75,0-12.14-5.44-23.01-14.02-30.29ZM190.13,33.05c0,4.88-3.95,8.83-8.83,8.84h0v-17.68c4.88,0,8.84,3.96,8.84,8.84ZM181.29,97.77v-32.27c8.91,0,16.14,7.22,16.14,16.14s-7.23,16.13-16.14,16.13Z"/>
  <path d="M375.61.4c-33.71,0-61.04,27.33-61.04,61.04s27.33,61.03,61.04,61.03,61.03-27.33,61.03-61.03S409.32.4,375.61.4ZM375.61,96.92c-19.6,0-35.49-15.88-35.49-35.48s15.89-35.49,35.49-35.49,35.49,15.88,35.49,35.49-15.89,35.48-35.49,35.48Z"/>
  <polygon points="305.29 1.4 290.36 65.5 279.03 25.03 270.14 25.03 261.25 25.03 249.91 65.5 234.99 1.4 209.94 1.57 239.64 121.46 263.35 121.46 270.14 92.7 276.92 121.46 300.64 121.46 330.34 1.57 305.29 1.4"/>
  <rect x="434.04" y="1.49" width="26.78" height="119.89"/>
  <path d="M489.86,68.38L470.84,2.76c-3.2-.83-6.56-1.27-10.02-1.27h-.54s-.01.01-.01.01l-16.31,4.73,6.47,22.33h0s8.39,28.94,8.39,28.94l2,6.89,4.73,16.31,11.79,40.68h27.88l-15.36-53ZM460.82,57.62V24.85c9.06,0,16.39,7.33,16.39,16.39s-7.33,16.38-16.39,16.38Z"/>
  <path d="M552.45,41.82L585.9,1.49h-32.9l-11.66,13.72-6.97,8.2V1.49h-26.78v119.89h26.78v-53.36l5.97,14.28,16.32,39.08h29.01l-22.57-54.07-10.65-25.49ZM539.03,58.01l7.75-9.35c-1.29,3.98-4.07,7.34-7.75,9.35Z"/>
  <path d="M546.78,48.66c-1.29,3.98-4.07,7.34-7.75,9.35l7.75-9.35Z"/>
  <path d="M470.84,2.76c-3.2-.83-6.56-1.27-10.02-1.27-.18,0-.36,0-.54.01h-.01c-10.1.13-19.29,4.04-26.23,10.37v58.73c7.06,6.45,16.47,10.38,26.78,10.38,1.6,0,3.18-.09,4.73-.28,9.56-1.13,18.07-5.65,24.31-12.32,6.64-7.1,10.71-16.64,10.71-27.14,0-18.5-12.63-34.04-29.73-38.48ZM460.82,57.62V24.85c9.06,0,16.39,7.33,16.39,16.39s-7.33,16.38-16.39,16.38Z"/>
  <path d="M603.62,34.74s-.04-.07-.04-.07c-1.19-1.8-1.75-4.05-1.42-6.42.59-4.22,4.13-7.63,8.48-8.11,4.75-.52,9.18,2.15,10.6,6.24l15.96-13.06c-5.68-8.4-15.64-13.81-26.86-13.29-15.34.71-28.85,12.18-29.79,27.11-.56,8.94,3.23,18.09,9.19,23.84,5.48,5.33,13.71,8.2,22.07,8.2s14.43-4.2,19.92-9.52c-1.33-.78-7.07-3.52-17.14-6.42-7.43-2.14-10.65-7.87-10.98-8.5Z"/>
  <path d="M633.25,50.56c-3.61-2.27-7.63-3.98-11.93-5.02-3.04-.73-6.23-1.13-9.5-1.13-7.89,0-15.25,2.25-21.42,6.14-.22.14-.43.27-.64.42,1.72,1.58,11.6,10.2,26.5,14.6,11.07,3.27,12.76,11.8,12.67,17.03.01.1.01.19.01.29,0,1.2-.13,2.37-.38,3.49-.02.07-.03.13-.04.19-.02.09-.04.18-.06.25,0,.03-.01.06-.02.09-1.84,7.28-8.58,12.66-16.61,12.66-4.81,0-9.15-1.93-12.25-5.03l-17.39,13.82c7.25,7.98,17.84,13.01,29.63,13.01,21.82,0,39.52-17.23,39.52-38.48,0-13.55-7.21-25.47-18.09-32.34Z"/>
  <polyline class="cls-1" points="790.5 12.68 788.95 13.99 772.81 27.55 770.88 29.18"/>
  <g>
    <path d="M358.61,71.56c-5.24,0-8.61-4.09-8.61-9.15s3.37-9.11,8.61-9.11c2.48,0,4.81.94,6.39,2.39l-1.42,1.47c-1.4-1.24-3.08-1.93-4.97-1.93-4,0-6.47,3.36-6.47,7.15s2.47,7.24,6.47,7.24c3.4,0,6.19-2.78,6.51-6.14l-6.8.02v-1.96h8.98v.9c0,5.01-3.84,9.11-8.69,9.11Z"/>
    <path d="M373.51,66.41v5.15h-2.12v-18.26h3.96c5.3,0,7.75,2.25,7.75,6.54,0,4.96-3.82,6.55-7.89,6.57h-1.7ZM373.51,55.23v9.23h1.7c3.63,0,5.98-1.36,5.98-4.61,0-2.78-1.51-4.61-5.73-4.61h-1.95Z"/>
    <path d="M400.24,56.5c-1.24-.78-2.69-1.26-4.28-1.26-4.28,0-7.24,3.38-7.24,7.15s2.97,7.24,7.24,7.24c1.45,0,2.83-.41,4.28-1.26l.97,1.66c-1.79,1.1-3.4,1.54-5.29,1.54-5.52,0-9.34-4.09-9.34-9.15s3.84-9.11,9.34-9.11c1.89,0,3.43.41,5.29,1.54l-.97,1.66Z"/>
  </g>
</svg>